<svg width="146" height="152" viewBox="0 0 146 152" fill="none" xmlns="http://www.w3.org/2000/svg">
<g clip-path="url(#clip0_102_2)">
<path d="M0 78.7634C0 38.6054 32.5467 6.05872 72.7047 6.05872C112.863 6.05872 145.409 38.6054 145.409 78.7634C145.409 118.921 112.863 151.468 72.7047 151.468C32.5467 151.468 0 118.921 0 78.7634Z" fill="#D69902"/>
</g>
<path d="M73.9226 25.3889C76.7114 25.3889 79.2726 26.9266 80.6007 29.3753L121.58 105.307C122.851 107.66 122.794 110.508 121.428 112.805C120.062 115.102 117.577 116.506 114.921 116.506H32.9626C30.2876 116.506 27.8213 115.102 26.4553 112.805C25.0893 110.508 25.0324 107.66 26.3035 105.307L67.2825 29.3753L67.8327 28.5021C69.2176 26.5659 71.4752 25.3889 73.9226 25.3889ZM57.5879 72.827L62.6724 77.9144C63.8486 79.0913 65.7837 79.0913 66.96 77.9144L75.1747 69.6948C76.313 68.5559 77.8498 67.9105 79.4623 67.9105H87.5823L73.9036 42.5684L57.569 72.827H57.5879Z" fill="white"/>
<defs>
<clipPath id="clip0_102_2">
<rect width="145.409" height="145.409" fill="white" transform="translate(0 6.05872)"/>
</clipPath>
</defs>
</svg>
